<svg xmlns="http://www.w3.org/2000/svg" viewBox="0 0 99.72 11.76"><g id="Layer_2" data-name="Layer 2"><g id="Layer_1-2" data-name="Layer 1"><g id="svg_5" data-name="svg 5"><path id="svg_4" data-name="svg 4" d="M0,0A3.09,3.09,0,0,0,2,2.37h3.2l.16.07v9.29h2V2.46l.18-.08h3.2a3.12,3.12,0,0,0,2-2.33V0H0ZM69.67,0h-2V11.76h9.09a3.18,3.18,0,0,0,1.73-2.31H69.67ZM54.39,2.33A3.27,3.27,0,0,0,56.55,0L45.42,0V7h9.11V9.39H47.38a4.15,4.15,0,0,0-2.54,2.36H56.49V4.65h-9.1V2.33Zm33.92,9.42h2V7h7.17v4.72h2V4.67H88.31ZM24.92,2.36h7.59A3,3,0,0,0,34.57,0H22.86A3.07,3.07,0,0,0,24.92,2.36Zm0,4.64h7.59a3.05,3.05,0,0,0,2.06-2.36H22.86A3.09,3.09,0,0,0,24.92,7Zm0,4.76h7.59A3,3,0,0,0,34.57,9.4H22.86A3.07,3.07,0,0,0,24.92,11.76Zm65.15-9.4h7.59A3,3,0,0,0,99.72,0H88A3,3,0,0,0,90.07,2.36Z"/></g></g></g></svg>